# xmcd
#
# Track frame offsets: 
#        150
#        29526
#        41422
#        54514
#        67222
#        78818
#        93843
#        105264
#        115546
#        128941
#        144403
#        154928
#        166432
#        177688
#        190303
#        202434
#        216040
#        228979
#        249329
#        266610
#        278917
#        291806
#        305610
#        317023
#
# Disc length: 4363 seconds
#
# Revision: 0
# Processed by: cddbd v1.5.2PL0 Copyright (c) Steve Scherf et al.
# Submitted via: ExactAudioCopy v0.99pb5
#
DISCID=60110918
DTITLE=Ray Charles - What'd I Say
DYEAR=2010
DGENRE=Blues
TTITLE0=What'd I Say (Parts 1 and 2)
TTITLE1=Mess Araound
TTITLE2=Baby, Won't You Please Come Hpme
TTITLE3=Lonely Boy
TTITLE4=C C Rider (See What You Have Done)
TTITLE5=Drown in My Own Tears
TTITLE6=Halleluljah I Love Her So
TTITLE7=Sittin' on Top of the World
TTITLE8=Greenbacks
TTITLE9=Night Time Is the Right Time
TTITLE10=I'm Movin' On
TTITLE11=Lonely Avenue
TTITLE12=This Little Girl of Mine
TTITLE13=I Got a Woman
TTITLE14=It Should Have Neen Me
TTITLE15=Baby Let Me Hold Your Hand
TTITLE16=Let the Good Times Roll
TTITLE17=My Melancholy Baby
TTITLE18=Rockhouse (Parts 1 and 2)
TTITLE19=That's Enough
TTITLE20=Ain't That Love
TTITLE21=Come Back Baby
TTITLE22=Here I Am (aka Let's Have a Ball)
TTITLE23=Swanee River Rock
EXTD=
EXTT0=
EXTT1=
EXTT2=
EXTT3=
EXTT4=
EXTT5=
EXTT6=
EXTT7=
EXTT8=
EXTT9=
EXTT10=
EXTT11=
EXTT12=
EXTT13=
EXTT14=
EXTT15=
EXTT16=
EXTT17=
EXTT18=
EXTT19=
EXTT20=
EXTT21=
EXTT22=
EXTT23=
PLAYORDER=
